<svg width="90" height="90" viewBox="0 0 98 102" fill="none" xmlns="http://www.w3.org/2000/svg">
<g clip-path="url(#clip0_334_26)">
<path d="M44.5001 41.4874C43.0747 35.7887 53.5429 28.8704 56.082 26.2317C57.7895 24.4726 57.4257 23.4378 54.9906 23.1274L49.7565 22.4178C47.5292 22.1222 45.6806 22.8243 44.2106 24.5243C37.6624 32.0635 30.5797 41.0217 40.157 49.7582C47.6851 56.6322 58.6879 48.8491 63.0088 53.8382C66.6838 58.0513 62.786 63.3065 57.9529 63.9052C55.681 64.1935 53.4092 63.2843 51.0038 62.9739C41.8497 61.7765 35.2347 73.2182 26.4147 63.6835C23.1183 60.1356 23.1851 54.4369 18.0401 50.8891C17.7667 50.6987 17.4461 50.5865 17.1132 50.5647C16.7802 50.5429 16.4476 50.6123 16.1515 50.7655C15.8554 50.9186 15.6071 51.1495 15.4335 51.4332C15.2599 51.7169 15.1677 52.0426 15.167 52.3748C15.0779 58.14 16.147 74.1052 24.3433 74.4822C34.4997 74.9256 50.4915 61.7543 49.5783 83.5956C49.5486 84.2165 49.8233 84.6526 50.4024 84.9039C53.09 86.1013 54.8198 85.6726 55.592 83.6178C57.5074 78.503 59.8089 73.5656 62.4965 68.8056C66.0379 62.5748 72.3188 64.6813 77.9538 63.8609C78.8892 63.7278 79.4312 63.1956 79.5797 62.2643L80.1588 58.4061C80.2186 58.0104 80.1523 57.6047 79.9691 57.2438C79.7858 56.8829 79.4944 56.5842 79.1342 56.3882C73.967 53.5943 70.047 47.8735 65.4142 45.8556C59.4451 43.2613 46.9724 51.3548 44.5001 41.4874Z" stroke="#F5C7DB" stroke-width="2"/>
<path d="M23.119 46.8313C26.8831 51 26.8163 61.1778 35.5472 59.803C36.2475 59.6935 36.9005 59.3804 37.4235 58.9033C37.9465 58.4262 38.3161 57.8066 38.4854 57.1229C38.6547 56.4392 38.6161 55.7221 38.3746 55.0624C38.1331 54.4027 37.6994 53.8301 37.1286 53.4169C27.9522 46.7204 26.4822 37.2078 32.6072 26.4978C33.1269 25.5813 32.9042 25.33 31.939 25.7439L30.2017 26.4756C29.5039 26.7713 28.9619 27.2517 28.5758 27.9169C26.5416 31.3908 25.8734 35.1234 26.5713 39.1147C26.6248 39.4159 26.6072 39.7253 26.52 40.0185C26.4328 40.3117 26.2784 40.5807 26.0689 40.8043C25.8594 41.028 25.6006 41.2001 25.3128 41.3071C25.0251 41.414 24.7163 41.453 24.4108 41.4208C22.7033 41.2287 21.2704 40.5191 20.1122 39.2921C19.9562 39.1293 19.7603 39.0092 19.544 38.9437C19.3278 38.8783 19.0988 38.8698 18.8801 38.9192C18.6613 38.9686 18.4604 39.0741 18.2975 39.2252C18.1346 39.3762 18.0153 39.5676 17.9517 39.78L17.7067 40.4895C17.5437 41.006 17.5485 41.5605 17.7205 42.0741C17.8924 42.5877 18.2228 43.0342 18.6645 43.35C21.0699 45.0647 22.5548 46.2252 23.119 46.8313Z" stroke="#F5C7DB" stroke-width="2"/>
<path d="M62.6753 34.2365L65.3035 29.5578C65.4509 29.2893 65.5067 28.9811 65.4625 28.6806C65.4182 28.3802 65.2763 28.1041 65.0585 27.8948L64.5017 27.3848C63.8187 26.7196 63.2841 26.8157 62.8981 27.6731C62.2002 29.1957 61.4058 30.6665 60.5149 32.0857C58.5103 35.2787 54.724 36.4096 52.6081 39.0926C52.4354 39.3142 52.3262 39.5788 52.2924 39.8574C52.2587 40.136 52.3017 40.4178 52.4167 40.672C52.5317 40.9262 52.7143 41.1429 52.9445 41.2985C53.1747 41.454 53.4436 41.5424 53.7217 41.5539C57.3522 41.7313 60.9381 39.0926 64.6353 39.0483C68.7112 39.0039 72.1858 42.707 74.6581 44.7691C77.405 47.0752 78.1697 46.5431 76.9521 43.1726C75.3634 38.8118 71.3097 36.9196 64.7912 37.4961C64.3918 37.5309 63.9905 37.4566 63.6303 37.2812C63.2701 37.1058 62.9648 36.836 62.7472 36.5007C62.5296 36.1655 62.4079 35.7775 62.3953 35.3786C62.3826 34.9796 62.4794 34.5848 62.6753 34.2365Z" stroke="#F5C7DB" stroke-width="2"/>
<path d="M60.1724 58.0502C60.1241 57.2872 59.7031 56.579 59.0021 56.0813C58.301 55.5836 57.3773 55.3371 56.4341 55.3962C55.4908 55.4553 54.6054 55.815 53.9725 56.3963C53.3396 56.9776 53.0111 57.7329 53.0593 58.4959C53.1076 59.2588 53.5286 59.9671 54.2296 60.4648C54.9307 60.9625 55.8544 61.2089 56.7976 61.1499C57.7409 61.0908 58.6263 60.731 59.2592 60.1497C59.8921 59.5684 60.2206 58.8132 60.1724 58.0502Z" stroke="#F5C7DB" stroke-width="2"/>
<path d="M65.9045 80.203C68.3322 75.3691 69.624 73.8391 74.8358 71.8435C75.0109 71.7738 75.1689 71.6686 75.2994 71.5349C75.4299 71.4011 75.53 71.2418 75.5931 71.0674C75.7267 70.683 75.749 70.2913 75.6599 69.8922C75.4966 69.1974 75.066 68.9239 74.3681 69.0717C68.2357 70.3283 64.6572 74.1052 63.6327 80.4026C63.5584 80.8756 63.7514 81.1787 64.2117 81.3117C64.4939 81.3856 64.7834 81.3413 65.0804 81.1787C65.3774 81.0309 65.652 80.7056 65.9045 80.203Z" stroke="#F5C7DB" stroke-width="2"/>
<path d="M40.8913 85.3474C42.7028 85.6726 43.8313 85.7391 44.2767 85.5469C44.9906 85.2298 45.6217 84.7535 46.121 84.1551C46.6204 83.5567 46.9743 82.8524 47.1554 82.097C47.3364 81.3416 47.3397 80.5556 47.1649 79.8002C46.9901 79.0447 46.642 78.3403 46.1476 77.7417C42.7399 73.5952 34.2763 79.0056 29.4654 79.3382C26.7629 79.5156 26.607 80.24 28.9976 81.5113C32.3385 83.2704 36.3031 84.5491 40.8913 85.3474Z" stroke="#F5C7DB" stroke-width="2"/>
<path d="M0 0H98V102H0V0ZM44.5009 41.4874C43.0755 35.7887 53.5436 28.8704 56.0827 26.2317C57.7903 24.4726 57.4265 23.4378 54.9914 23.1274L49.7573 22.4178C47.53 22.1222 45.6814 22.8243 44.2114 24.5243C37.6632 32.0635 30.5805 41.0217 40.1577 49.7583C47.6859 56.6322 58.6886 48.8491 63.0095 53.8383C66.6845 58.0513 62.7868 63.3065 57.9536 63.9052C55.6818 64.1935 53.41 63.2843 51.0045 62.9739C41.8505 61.7765 35.2355 73.2183 26.4155 63.6835C23.1191 60.1357 23.1859 54.437 18.0409 50.8891C17.7675 50.6987 17.4469 50.5865 17.1139 50.5647C16.781 50.5429 16.4484 50.6124 16.1523 50.7655C15.8562 50.9186 15.6078 51.1495 15.4343 51.4332C15.2607 51.717 15.1685 52.0426 15.1677 52.3748C15.0786 58.14 16.1477 74.1052 24.3441 74.4822C34.5005 74.9257 50.4923 61.7543 49.5791 83.5956C49.5494 84.2165 49.8241 84.6526 50.4032 84.9039C53.0908 86.1013 54.8206 85.6726 55.5927 83.6178C57.5082 78.503 59.8097 73.5657 62.4973 68.8056C66.0386 62.5748 72.3195 64.6813 77.9545 63.8609C78.89 63.7278 79.432 63.1957 79.5805 62.2643L80.1596 58.4061C80.2193 58.0104 80.1531 57.6047 79.9699 57.2438C79.7866 56.8829 79.4952 56.5842 79.135 56.3883C73.9677 53.5943 70.0477 47.8735 65.415 45.8557C59.4459 43.2613 46.9732 51.3548 44.5009 41.4874ZM23.1191 46.8313C26.8832 51 26.8164 61.1778 35.5473 59.803C36.2476 59.6935 36.9006 59.3804 37.4236 58.9033C37.9466 58.4263 38.3161 57.8067 38.4854 57.123C38.6547 56.4392 38.6162 55.7222 38.3747 55.0625C38.1331 54.4028 37.6995 53.8301 37.1286 53.417C27.9523 46.7204 26.4823 37.2078 32.6073 26.4978C33.127 25.5813 32.9042 25.33 31.9391 25.7439L30.2018 26.4757C29.5039 26.7713 28.962 27.2517 28.5759 27.917C26.5417 31.3909 25.8735 35.1235 26.5714 39.1148C26.6248 39.4159 26.6073 39.7253 26.5201 40.0185C26.4329 40.3117 26.2785 40.5808 26.069 40.8044C25.8595 41.028 25.6006 41.2001 25.3129 41.3071C25.0251 41.4141 24.7164 41.453 24.4109 41.4209C22.7033 41.2287 21.2705 40.5191 20.1123 39.2922C19.9563 39.1293 19.7603 39.0092 19.5441 38.9437C19.3279 38.8783 19.0989 38.8698 18.8801 38.9192C18.6614 38.9686 18.4605 39.0741 18.2976 39.2252C18.1346 39.3763 18.0154 39.5676 17.9518 39.78L17.7068 40.4896C17.5438 41.006 17.5486 41.5605 17.7205 42.0741C17.8925 42.5877 18.2229 43.0342 18.6645 43.35C21.07 45.0648 22.5548 46.2252 23.1191 46.8313ZM62.6755 34.2365L65.3036 29.5578C65.451 29.2893 65.5069 28.9811 65.4626 28.6806C65.4183 28.3801 65.2764 28.1041 65.0586 27.8948L64.5018 27.3848C63.8188 26.7196 63.2842 26.8157 62.8982 27.673C62.2003 29.1957 61.4059 30.6665 60.515 32.0857C58.5105 35.2787 54.7241 36.4096 52.6082 39.0926C52.4355 39.3142 52.3263 39.5788 52.2926 39.8574C52.2588 40.136 52.3018 40.4178 52.4168 40.672C52.5318 40.9262 52.7144 41.1429 52.9446 41.2985C53.1748 41.454 53.4437 41.5424 53.7218 41.5539C57.3523 41.7313 60.9382 39.0926 64.6355 39.0483C68.7114 39.0039 72.1859 42.707 74.6582 44.7691C77.4052 47.0752 78.1698 46.543 76.9523 43.1726C75.3635 38.8117 71.3099 36.9196 64.7914 37.4961C64.392 37.5309 63.9906 37.4566 63.6304 37.2812C63.2703 37.1058 62.965 36.836 62.7473 36.5007C62.5297 36.1655 62.408 35.7775 62.3954 35.3786C62.3827 34.9796 62.4795 34.5848 62.6755 34.2365ZM60.1738 58.0502C60.1255 57.2872 59.7046 56.579 59.0035 56.0813C58.3025 55.5836 57.3787 55.3372 56.4355 55.3962C55.4923 55.4553 54.6068 55.8151 53.9739 56.3964C53.341 56.9777 53.0125 57.7329 53.0608 58.4959C53.109 59.2588 53.53 59.9671 54.231 60.4648C54.9321 60.9625 55.8558 61.2089 56.799 61.1499C57.7423 61.0908 58.6278 60.731 59.2606 60.1497C59.8935 59.5684 60.222 58.8132 60.1738 58.0502ZM65.905 80.203C68.3327 75.3691 69.6245 73.8391 74.8364 71.8435C75.0114 71.7738 75.1694 71.6686 75.2999 71.5349C75.4305 71.4011 75.5306 71.2418 75.5936 71.0674C75.7273 70.683 75.7495 70.2913 75.6605 69.8922C75.4971 69.1974 75.0665 68.9239 74.3686 69.0717C68.2362 70.3283 64.6577 74.1052 63.6332 80.4026C63.5589 80.8756 63.752 81.1787 64.2123 81.3117C64.4944 81.3856 64.7839 81.3413 65.0809 81.1787C65.3779 81.0309 65.6526 80.7056 65.905 80.203ZM40.8927 85.3474C42.7042 85.6726 43.8327 85.7391 44.2782 85.547C44.992 85.2298 45.6232 84.7535 46.1225 84.1551C46.6218 83.5567 46.9758 82.8524 47.1568 82.097C47.3379 81.3417 47.3412 80.5556 47.1664 79.8002C46.9916 79.0448 46.6434 78.3403 46.1491 77.7417C42.7414 73.5952 34.2777 79.0056 29.4668 79.3383C26.7644 79.5156 26.6085 80.24 28.9991 81.5113C32.34 83.2704 36.3045 84.5491 40.8927 85.3474Z" fill="#FEFEFE"/>
<path d="M44.5001 41.4874C46.9724 51.3548 59.4451 43.2613 65.4142 45.8556C70.047 47.8735 73.967 53.5943 79.1342 56.3882C79.4944 56.5842 79.7859 56.8829 79.9691 57.2438C80.1523 57.6047 80.2186 58.0104 80.1588 58.4061L79.5797 62.2643C79.4312 63.1956 78.8892 63.7278 77.9538 63.8609C72.3188 64.6813 66.0379 62.5748 62.4965 68.8056C59.8089 73.5656 57.5074 78.503 55.592 83.6178C54.8198 85.6726 53.09 86.1013 50.4024 84.9039C49.8233 84.6526 49.5486 84.2165 49.5783 83.5956C50.4915 61.7543 34.4997 74.9256 24.3433 74.4822C16.147 74.1052 15.0779 58.14 15.167 52.3748C15.1677 52.0426 15.2599 51.7169 15.4335 51.4332C15.6071 51.1495 15.8554 50.9186 16.1515 50.7655C16.4476 50.6123 16.7802 50.5429 17.1132 50.5647C17.4461 50.5865 17.7667 50.6987 18.0401 50.8891C23.1851 54.4369 23.1183 60.1356 26.4147 63.6835C35.2347 73.2182 41.8497 61.7765 51.0038 62.9739C53.4092 63.2843 55.681 64.1935 57.9529 63.9052C62.786 63.3065 66.6838 58.0513 63.0088 53.8382C58.6879 48.8491 47.6851 56.6322 40.157 49.7582C30.5797 41.0217 37.6624 32.0635 44.2106 24.5243C45.6806 22.8243 47.5292 22.1222 49.7565 22.4178L54.9906 23.1274C57.4257 23.4378 57.7895 24.4726 56.082 26.2317C53.5429 28.8704 43.0747 35.7887 44.5001 41.4874Z" fill="#EB90B8"/>
<path d="M23.119 46.8313C22.5548 46.2252 21.0699 45.0648 18.6645 43.35C18.2228 43.0342 17.8924 42.5878 17.7205 42.0742C17.5485 41.5606 17.5437 41.0061 17.7067 40.4896L17.9517 39.78C18.0153 39.5676 18.1346 39.3763 18.2975 39.2252C18.4604 39.0742 18.6613 38.9687 18.8801 38.9193C19.0988 38.8699 19.3278 38.8783 19.544 38.9438C19.7603 39.0092 19.9562 39.1294 20.1122 39.2922C21.2704 40.5192 22.7033 41.2287 24.4108 41.4209C24.7163 41.4531 25.0251 41.4141 25.3128 41.3071C25.6006 41.2001 25.8594 41.028 26.0689 40.8044C26.2784 40.5808 26.4328 40.3117 26.52 40.0185C26.6072 39.7253 26.6248 39.4159 26.5713 39.1148C25.8734 35.1235 26.5416 31.3909 28.5758 27.917C28.9619 27.2518 29.5039 26.7713 30.2017 26.4757L31.939 25.7439C32.9042 25.33 33.1269 25.5813 32.6072 26.4979C26.4822 37.2079 27.9522 46.7205 37.1286 53.417C37.6994 53.8301 38.1331 54.4028 38.3746 55.0625C38.6161 55.7222 38.6547 56.4393 38.4854 57.123C38.3161 57.8067 37.9465 58.4263 37.4235 58.9034C36.9005 59.3804 36.2475 59.6936 35.5472 59.8031C26.8163 61.1779 26.8831 51 23.119 46.8313Z" fill="#EB90B8"/>
<path d="M62.6753 34.2365C62.4794 34.5848 62.3826 34.9796 62.3953 35.3786C62.4079 35.7775 62.5296 36.1655 62.7472 36.5007C62.9648 36.836 63.2701 37.1058 63.6303 37.2812C63.9905 37.4566 64.3918 37.5309 64.7912 37.4961C71.3097 36.9196 75.3634 38.8118 76.9521 43.1726C78.1697 46.5431 77.405 47.0752 74.6581 44.7691C72.1858 42.707 68.7112 39.0039 64.6353 39.0483C60.9381 39.0926 57.3522 41.7313 53.7217 41.5539C53.4436 41.5424 53.1747 41.454 52.9445 41.2985C52.7143 41.1429 52.5317 40.9262 52.4167 40.672C52.3017 40.4178 52.2587 40.136 52.2924 39.8574C52.3262 39.5788 52.4354 39.3142 52.6081 39.0926C54.724 36.4096 58.5103 35.2787 60.5149 32.0857C61.4058 30.6665 62.2002 29.1957 62.8981 27.6731C63.2841 26.8157 63.8187 26.7196 64.5017 27.3848L65.0585 27.8948C65.2763 28.1041 65.4182 28.3802 65.4625 28.6806C65.5067 28.9811 65.4509 29.2893 65.3035 29.5578L62.6753 34.2365Z" fill="#EB90B8"/>
<path d="M56.7991 61.15C58.7634 61.0269 60.2743 59.6392 60.1739 58.0503C60.0735 56.4614 58.3998 55.2731 56.4355 55.3961C54.4713 55.5192 52.9603 56.9069 53.0607 58.4958C53.1611 60.0847 54.8349 61.273 56.7991 61.15Z" fill="#EB90B8"/>
<path d="M74.8358 71.8435C69.624 73.8391 68.3322 75.3691 65.9045 80.203C65.652 80.7056 65.3774 81.0309 65.0804 81.1787C64.7834 81.3413 64.4939 81.3856 64.2117 81.3117C63.7514 81.1787 63.5584 80.8756 63.6327 80.4026C64.6572 74.1052 68.2357 70.3283 74.3681 69.0717C75.066 68.9239 75.4966 69.1974 75.6599 69.8922C75.749 70.2913 75.7267 70.683 75.5931 71.0674C75.53 71.2418 75.4299 71.4011 75.2994 71.5349C75.1689 71.6686 75.0109 71.7738 74.8358 71.8435Z" fill="#EB90B8"/>
<path d="M40.8932 85.3474C36.305 84.5492 32.3405 83.2704 28.9996 81.5113C26.609 80.24 26.7649 79.5157 29.4673 79.3383C34.2782 79.0057 42.7419 73.5952 46.1496 77.7418C46.6439 78.3403 46.9921 79.0448 47.1669 79.8002C47.3417 80.5557 47.3384 81.3417 47.1573 82.097C46.9763 82.8524 46.6223 83.5567 46.123 84.1551C45.6237 84.7535 44.9925 85.2298 44.2787 85.547C43.8332 85.7392 42.7047 85.6726 40.8932 85.3474Z" fill="#EB90B8"/>
</g>
<defs>
<clipPath id="clip0_334_26">
<rect width="90" height="90" fill="white"/>
</clipPath>
</defs>
</svg>
