<svg width="126" height="128" viewBox="0 0 126 128" fill="none" xmlns="http://www.w3.org/2000/svg">
<path d="M38.9601 15.98C39.1692 15.8244 39.3175 15.6007 39.3795 15.3475C39.4414 15.0942 39.4131 14.8273 39.2993 14.5928C39.1856 14.3582 38.9936 14.1706 38.7564 14.0624C38.5193 13.9542 38.2518 13.9321 38.0001 14L16.6401 19C16.454 19.0426 16.2818 19.1321 16.1401 19.26L0.140066 34.12C-0.0388927 34.2858 -0.15882 34.5055 -0.201487 34.7457C-0.244154 34.9859 -0.207225 35.2335 -0.0963156 35.4507C0.0145938 35.668 0.193417 35.8432 0.412973 35.9495C0.632529 36.0559 0.880807 36.0877 1.12007 36.04L17.8401 32.9C18.0242 32.8632 18.1962 32.7806 18.3401 32.66L38.9601 15.98Z" stroke="#F7F7F7" stroke-width="2"/>
<path d="M51.3842 16.809C51.2763 16.6076 51.1297 16.4294 50.9528 16.2847C50.776 16.14 50.5724 16.0315 50.3536 15.9655C50.1349 15.8994 49.9053 15.8771 49.6779 15.8998C49.4505 15.9225 49.2298 15.9898 49.0284 16.0978L32.7068 24.8494C32.5055 24.9574 32.3273 25.104 32.1826 25.2808C32.0378 25.4576 31.9294 25.6612 31.8633 25.88C31.7973 26.0987 31.775 26.3284 31.7977 26.5557C31.8204 26.7831 31.8876 27.0038 31.9956 27.2052L32.0522 27.311C32.1602 27.5124 32.3068 27.6905 32.4836 27.8352C32.6605 27.98 32.8641 28.0885 33.0828 28.1545C33.3016 28.2205 33.5312 28.2429 33.7586 28.2201C33.986 28.1974 34.2067 28.1302 34.408 28.0222L50.7296 19.2706C50.931 19.1626 51.1092 19.016 51.2539 18.8392C51.3986 18.6623 51.5071 18.4587 51.5732 18.24C51.6392 18.0212 51.6615 17.7916 51.6388 17.5642C51.6161 17.3368 51.5488 17.1162 51.4408 16.9148L51.3842 16.809Z" stroke="#F7F7F7" stroke-width="2"/>
<path d="M79.5991 41.12C79.7725 41.36 79.7391 41.5667 79.4991 41.74C73.9258 45.6733 68.5058 49.84 63.2391 54.24C54.5591 61.4933 40.5191 70.6133 21.1191 81.6C11.4591 87.06 -1.20085 93.64 -12.5409 93.08C-13.1813 93.0476 -13.804 92.8585 -14.3544 92.5295C-14.9048 92.2004 -15.366 91.7413 -15.6977 91.1925C-16.0293 90.6436 -16.2213 90.0218 -16.2567 89.3815C-16.2922 88.7413 -16.17 88.1021 -15.9009 87.52C-13.8475 83.1067 -10.9875 79.2867 -7.32085 76.06C-6.81419 75.5933 -6.21419 75.38 -5.52085 75.42L-4.44085 75.46C-3.80085 75.4867 -3.24752 75.28 -2.78085 74.84L5.19915 67.02C5.35915 66.8467 5.38581 66.6533 5.27914 66.44L4.99915 65.94C4.94369 65.8314 4.86364 65.7374 4.7651 65.6651C4.66656 65.5928 4.55215 65.5442 4.43059 65.523C4.30903 65.5018 4.18355 65.5085 4.06371 65.5426C3.94388 65.5768 3.83286 65.6374 3.73915 65.72C0.219147 68.8533 -3.84752 70.8333 -8.46085 71.66C-8.99487 71.7515 -9.49102 72.0101 -9.88085 72.4C-26.1009 88.7 -25.8609 108.12 3.47915 100.88C22.5791 96.16 47.3591 79.46 64.8591 66.82C72.0991 61.58 77.7391 56.18 85.2591 49.48C91.3991 43.98 111.699 20.48 89.5191 19.32C81.9591 18.92 74.5991 20.28 67.4391 23.4C67.1721 23.518 66.8813 23.5722 66.5897 23.5583C66.2981 23.5445 66.0137 23.4629 65.7591 23.32L58.0991 19.04C56.7125 18.2667 55.7925 18.6467 55.3391 20.18C54.5658 22.8867 52.4258 24.8 48.9191 25.92C43.1325 27.8 37.6058 30.2333 32.3391 33.22C24.4791 37.68 19.5791 44.7 10.5991 47.18C5.77248 48.5133 0.919147 49.3 -3.96085 49.54C-4.89731 49.5897 -5.78092 49.9894 -6.43658 50.6599C-7.09223 51.3303 -7.47208 52.2227 -7.50085 53.16L-7.78085 63C-7.84752 65.2533 -6.79419 66.0733 -4.62085 65.46C4.37915 62.9 9.21915 59.64 16.1991 55.5C21.0191 52.62 25.6791 52.24 31.0591 51.64C35.4991 51.14 43.8791 44.82 48.3791 40.58C55.0391 34.28 62.8391 27.22 72.1391 25.38C77.9591 24.24 83.2991 21.62 89.3991 22.84C89.7801 22.9174 90.139 23.0793 90.4491 23.3137C90.7593 23.5481 91.0129 23.8491 91.1914 24.1945C91.3699 24.5399 91.4686 24.9209 91.4803 25.3095C91.492 25.6982 91.4165 26.0845 91.2591 26.44C89.1525 31.2267 86.0791 35.2333 82.0391 38.46C81.6391 38.7933 81.2325 38.7933 80.8191 38.46C79.6725 37.5133 77.9991 37.48 75.7991 38.36C67.2791 41.82 53.8991 45.56 47.0991 51.6C41.9191 56.2 34.6791 63.68 27.8991 65.38C21.7791 66.9 11.2391 65.46 5.73915 71.26C3.15248 73.9933 0.939144 76.0333 -0.900856 77.38C-2.70086 78.7 -3.00085 80.3 -1.80085 82.18L1.11914 86.8C2.31914 88.6933 3.93248 89.14 5.95914 88.14C30.0925 76.1667 49.6191 64.14 64.5391 52.06C71.2458 46.6333 76.0591 42.94 78.9791 40.98C79.2325 40.82 79.4391 40.86 79.5991 41.1V41.12Z" stroke="#F7F7F7" stroke-width="2"/>
<path d="M57.4192 41.14C62.9792 36.92 68.1392 33.34 73.7992 33.86C77.5592 34.2066 77.9792 33.1866 75.0592 30.8C70.6592 27.22 58.5592 35.66 54.7392 38.52C54.5948 38.6291 54.4743 38.7668 54.3853 38.9245C54.2963 39.0821 54.2407 39.2564 54.2219 39.4365C54.2032 39.6166 54.2217 39.7986 54.2763 39.9712C54.3308 40.1439 54.4204 40.3034 54.5392 40.44L54.8792 40.84C55.1861 41.2078 55.6214 41.4443 56.0946 41.5002C56.5677 41.5561 57.0422 41.4271 57.4192 41.14Z" stroke="#F7F7F7" stroke-width="2"/>
<path d="M13.0952 39.9116C13.0257 39.5848 12.8292 39.2989 12.549 39.1169C12.2687 38.9349 11.9277 38.8717 11.6008 38.9412L-3.58019 42.168C-3.90703 42.2375 -4.19289 42.434 -4.37487 42.7142C-4.55685 42.9945 -4.62006 43.3355 -4.55059 43.6624L-4.41759 44.2884C-4.34809 44.6152 -4.1516 44.9011 -3.87135 45.0831C-3.5911 45.2651 -3.25004 45.3283 -2.92319 45.2588L12.2578 42.032C12.5847 41.9625 12.8705 41.766 13.0525 41.4858C13.2345 41.2055 13.2977 40.8645 13.2282 40.5376L13.0952 39.9116Z" stroke="#F7F7F7" stroke-width="2"/>
<path d="M14.8189 100.76L16.8789 102.26C18.5989 103.513 20.4789 103.833 22.5189 103.22C28.9722 101.273 33.9655 98.5267 37.4989 94.98C45.2589 87.2 51.7989 85.68 60.4989 81.8C72.5922 76.4267 81.2255 67.6667 86.3989 55.52C86.8789 54.3733 86.4655 53.38 85.1589 52.54C84.6389 52.2067 84.1522 52.24 83.6989 52.64C63.1255 71.12 40.2655 86.1533 15.1189 97.74C13.3189 98.5666 13.2189 99.5733 14.8189 100.76Z" stroke="#F7F7F7" stroke-width="2"/>
<path d="M83.2649 71.484C83.3887 71.508 83.5209 71.4821 83.654 71.4076C83.7871 71.3332 83.9186 71.2117 84.0408 71.05C84.1631 70.8884 84.2737 70.6898 84.3664 70.4655C84.4592 70.2413 84.5322 69.9958 84.5813 69.7432C84.6304 69.4905 84.6547 69.2356 84.6527 68.9929C84.6507 68.7503 84.6225 68.5247 84.5697 68.329C84.517 68.1333 84.4406 67.9714 84.3451 67.8525C84.2495 67.7336 84.1367 67.66 84.0129 67.636C83.8892 67.6119 83.7569 67.6378 83.6238 67.7123C83.4907 67.7867 83.3592 67.9083 83.237 68.0699C83.1147 68.2316 83.0041 68.4302 82.9114 68.6544C82.8186 68.8786 82.7456 69.1241 82.6965 69.3768C82.6474 69.6294 82.6231 69.8844 82.6251 70.127C82.6271 70.3697 82.6553 70.5952 82.7081 70.7909C82.7609 70.9866 82.8372 71.1485 82.9327 71.2674C83.0283 71.3863 83.1412 71.4599 83.2649 71.484Z" stroke="#F7F7F7" stroke-width="2"/>
<path d="M64.3382 88.84C55.2182 92.7 43.1382 97.16 36.7782 105.08C36.5951 105.312 36.4805 105.59 36.4474 105.883C36.4144 106.177 36.4642 106.473 36.5912 106.74C36.7182 107.006 36.9173 107.232 37.166 107.391C37.4147 107.55 37.703 107.636 37.9982 107.64C57.1582 107.82 76.3382 95.98 82.2382 77.18C82.2823 77.0298 82.2824 76.8702 82.2387 76.72C82.1949 76.5698 82.1091 76.4352 81.9913 76.3322C81.8736 76.2291 81.7288 76.1619 81.5741 76.1385C81.4194 76.1151 81.2612 76.1364 81.1182 76.2C74.1982 79.4 69.2782 86.74 64.3382 88.84Z" stroke="#F7F7F7" stroke-width="2"/>
<path d="M31.2391 105C31.2391 104.454 31.0221 103.93 30.6358 103.543C30.2495 103.157 29.7255 102.94 29.1791 102.94C28.6328 102.94 28.1088 103.157 27.7225 103.543C27.3362 103.93 27.1191 104.454 27.1191 105C27.1191 105.546 27.3362 106.07 27.7225 106.457C28.1088 106.843 28.6328 107.06 29.1791 107.06C29.7255 107.06 30.2495 106.843 30.6358 106.457C31.0221 106.07 31.2391 105.546 31.2391 105Z" stroke="#F7F7F7" stroke-width="2"/>
<path d="M38.8705 15.8596L38.8705 15.8595L38.8657 15.8634L18.2457 32.5434L18.2457 32.5433L18.2437 32.545C18.1193 32.6494 17.9707 32.7208 17.8115 32.7527C17.8112 32.7528 17.8109 32.7528 17.8107 32.7529L1.09238 35.8926L1.09076 35.8929C0.883545 35.9342 0.668519 35.9066 0.478368 35.8145C0.288216 35.7224 0.133342 35.5707 0.0372874 35.3826C-0.0587684 35.1944 -0.0907512 34.98 -0.0537986 34.7719C-0.0168458 34.5639 0.0870201 34.3736 0.24201 34.23L0.242144 34.2299L16.2405 19.3714C16.2408 19.3712 16.241 19.3709 16.2413 19.3707C16.3639 19.2603 16.5127 19.183 16.6736 19.1462L16.6743 19.146L38.0343 14.146L38.0343 14.1461L38.0391 14.1448C38.2571 14.0861 38.4888 14.1052 38.6942 14.1989C38.8996 14.2926 39.0659 14.4551 39.1644 14.6582C39.2629 14.8614 39.2874 15.0925 39.2338 15.3118C39.1801 15.5311 39.0517 15.7249 38.8705 15.8596Z" fill="#F23F21" stroke="white" stroke-width="0.3"/>
<path d="M32.7801 24.9817L49.1019 16.23C49.8758 15.8151 50.8395 16.1061 51.2545 16.88L51.3112 16.9857C51.7262 17.7596 51.4352 18.7234 50.6613 19.1383L34.3395 27.89C33.5656 28.3049 32.6019 28.014 32.1869 27.2401L32.1302 27.1343C31.7153 26.3604 32.0062 25.3966 32.7801 24.9817Z" fill="#F23F21" stroke="white" stroke-width="0.3"/>
<path d="M78.8956 40.8554L78.899 40.8531L78.899 40.8532C79.0443 40.7614 79.1985 40.7129 79.3526 40.7427C79.5081 40.7728 79.6301 40.8761 79.724 41.0168L79.7491 41.0546V41.0737C79.8313 41.2009 79.875 41.3379 79.8522 41.4789C79.827 41.6353 79.7257 41.7614 79.587 41.8616L79.5856 41.8626C74.0156 45.7935 68.5989 49.9577 63.3353 54.3551C54.6446 61.6174 40.5949 70.7428 21.1931 81.7305L21.193 81.7306C16.3618 84.4612 10.7741 87.4757 4.97364 89.7372C-0.825823 91.9984 -6.8484 93.5113 -12.5483 93.2298L-12.5484 93.2298C-13.2134 93.1962 -13.8599 92.9999 -14.4314 92.6582C-15.0028 92.3165 -15.4817 91.8399 -15.8261 91.2701C-16.1704 90.7002 -16.3697 90.0546 -16.4065 89.3898C-16.4433 88.725 -16.3164 88.0614 -16.037 87.457L-16.0369 87.4567C-13.975 83.025 -11.1028 79.1886 -7.42125 75.9485C-6.88508 75.4552 -6.24617 75.2283 -5.5139 75.2701C-5.51334 75.2702 -5.51278 75.2702 -5.51221 75.2702L-4.4353 75.3101L-4.43461 75.3101C-3.83554 75.3351 -3.3219 75.1435 -2.88482 74.7319C-2.88447 74.7315 -2.88411 74.7312 -2.88375 74.7309L5.09134 66.9156C5.1533 66.8477 5.18232 66.7842 5.19055 66.7245C5.19881 66.6646 5.18808 66.5944 5.14647 66.5101L4.86827 66.0133L4.86546 66.0083L4.86555 66.0082C4.82076 65.9205 4.7561 65.8445 4.67639 65.7861C4.59667 65.7276 4.50383 65.6881 4.40479 65.6708C4.30574 65.6535 4.20312 65.6589 4.10481 65.6869C4.00662 65.7149 3.91554 65.7646 3.83859 65.8323C3.83849 65.8324 3.83839 65.8325 3.8383 65.8326L3.73915 65.72C0.219147 68.8533 -3.84752 70.8333 -8.46085 71.66L78.8956 40.8554ZM78.8956 40.8554C75.9694 42.8196 71.1514 46.5168 64.4448 51.9434L64.5391 52.06M78.8956 40.8554L64.5391 52.06M64.5391 52.06L64.4448 51.9434C49.536 64.0143 30.0197 76.0353 5.89277 88.0055M64.5391 52.06L5.89277 88.0055M5.89277 88.0055C4.90078 88.4949 4.02951 88.6209 3.26917 88.4104C2.50905 88.2 1.83278 87.6458 1.24584 86.7197L-1.67406 82.0999L-1.67442 82.0993C-2.26159 81.1794 -2.46914 80.3481 -2.32842 79.5976C-2.1877 78.8471 -1.69303 78.147 -0.812265 77.501C1.03822 76.1467 3.25865 74.0994 5.8481 71.3631C8.56097 68.5023 12.5263 67.4177 16.6068 66.8636C18.2136 66.6455 19.8317 66.5102 21.3939 66.3797C21.8142 66.3445 22.2304 66.3098 22.6413 66.2738C24.5757 66.1044 26.3926 65.9087 27.9353 65.5256L27.9356 65.5255C31.3586 64.6672 34.8847 62.3547 38.1931 59.6944C40.4717 57.8623 42.6583 55.8554 44.6425 54.0343C45.5393 53.2112 46.3948 52.4261 47.1987 51.7122L47.0991 51.6L47.1988 51.7121C50.578 48.7105 55.602 46.2734 60.8603 44.1516C63.4875 43.0914 66.169 42.1117 68.728 41.18L69.0115 41.0768C71.4656 40.1834 73.8012 39.3333 75.8552 38.4991M75.8552 38.4991C75.8551 38.4992 75.855 38.4992 75.8549 38.4993L75.7991 38.36L75.8556 38.499C75.8555 38.499 75.8553 38.4991 75.8552 38.4991Z" fill="#F23F21" stroke="white" stroke-width="0.3"/>
<path d="M73.813 33.7106L73.813 33.7106C70.9458 33.4472 68.2121 34.2233 65.5042 35.5886C62.7981 36.953 60.1082 38.9108 57.3286 41.0205L57.3284 41.0207C56.9825 41.284 56.5469 41.4026 56.1122 41.3513C55.6773 41.2999 55.2768 41.0825 54.9944 40.7439L54.9935 40.7429L54.6535 40.3429L54.6535 40.3429L54.6524 40.3415C54.547 40.2205 54.4677 40.0791 54.4193 39.926C54.3709 39.773 54.3545 39.6117 54.3711 39.4521C54.3878 39.2925 54.4371 39.138 54.5159 38.9982C54.5948 38.8585 54.7015 38.7365 54.8295 38.6398C56.7373 37.2115 60.7085 34.3931 64.7487 32.3793C66.7695 31.3719 68.7994 30.5701 70.5922 30.2413C72.3889 29.9118 73.9153 30.0627 74.9644 30.9163C75.691 31.5101 76.2007 32.0119 76.5021 32.4225C76.8109 32.8433 76.8678 33.1224 76.7955 33.2979C76.7232 33.4736 76.4855 33.6325 75.9691 33.7157C75.4652 33.7968 74.7486 33.7969 73.813 33.7106Z" fill="#F23F21" stroke="white" stroke-width="0.3"/>
<path d="M-3.54689 42.3147L11.634 39.0879C12.2336 38.9604 12.823 39.3432 12.9505 39.9428L13.0835 40.5688C13.211 41.1685 12.8282 41.7579 12.2286 41.8854L-2.95227 45.1122C-3.55191 45.2396 -4.14134 44.8568 -4.26879 44.2572L-4.40186 43.6312C-4.52931 43.0315 -4.14653 42.4421 -3.54689 42.3147Z" fill="#F23F21" stroke="white" stroke-width="0.3"/>
<path d="M15.1836 97.8762L15.1834 97.8763C14.2874 98.2878 13.8863 98.7147 13.8451 99.1298C13.8038 99.5457 14.1134 100.048 14.9097 100.639C14.9099 100.639 14.91 100.639 14.9102 100.64L16.9691 102.139L16.9692 102.139C18.6512 103.364 20.4824 103.676 22.4775 103.076C28.9149 101.135 33.8838 98.3982 37.3946 94.8742L37.3946 94.8741C43.5984 88.6543 49.0361 86.4166 55.3815 83.8053C56.9993 83.1396 58.6762 82.4495 60.4397 81.663L60.4399 81.6629C72.4986 76.305 81.1044 67.5729 86.2628 55.4613C86.2628 55.4613 86.2628 55.4613 86.2628 55.4612L86.4008 55.52C86.8808 54.3734 86.4675 53.38 85.1608 52.54L15.1836 97.8762ZM15.1836 97.8762C40.3437 86.2834 63.2161 71.2419 83.8005 52.7521L15.1836 97.8762Z" fill="#F23F21" stroke="white" stroke-width="0.3"/>
<path d="M83.2953 71.3367C83.1225 71.3032 82.9533 71.1173 82.8547 70.7519C82.759 70.397 82.7457 69.9192 82.8456 69.4054C82.9454 68.8916 83.1368 68.4536 83.3584 68.1605C83.5867 67.8586 83.8132 67.7497 83.986 67.7833C84.1589 67.8168 84.3281 68.0027 84.4267 68.3681C84.5224 68.7229 84.5357 69.2007 84.4358 69.7146C84.3359 70.2284 84.1446 70.6664 83.9229 70.9595C83.6946 71.2614 83.4681 71.3703 83.2953 71.3367Z" fill="#F23F21" stroke="white" stroke-width="0.3"/>
<path d="M64.3987 88.9781L64.3989 88.978C65.653 88.4449 66.8996 87.5821 68.1679 86.5452C69.2722 85.6424 70.3994 84.6021 71.5663 83.5251C71.7397 83.3651 71.914 83.2042 72.0893 83.0428C74.8029 80.5443 77.7467 77.9255 81.182 76.3366C81.2986 76.285 81.4275 76.2677 81.5536 76.2868C81.68 76.306 81.7983 76.3609 81.8945 76.445C81.9907 76.5292 82.0608 76.6392 82.0966 76.7619C82.1322 76.8843 82.1322 77.0142 82.0966 77.1366C76.2188 95.8633 57.1054 107.669 38.0016 107.49C37.7346 107.487 37.4738 107.409 37.2488 107.265C37.0237 107.121 36.8435 106.917 36.7285 106.675C36.6136 106.434 36.5685 106.165 36.5984 105.9C36.6284 105.635 36.732 105.383 36.8976 105.173C40.0585 101.237 44.647 98.1541 49.5946 95.5705C53.5748 93.492 57.7771 91.7419 61.6449 90.131C62.5852 89.7394 63.5058 89.356 64.3987 88.9781Z" fill="#F23F21" stroke="white" stroke-width="0.3"/>
<path d="M31.0891 105C31.0891 106.055 30.234 106.91 29.1791 106.91C28.1243 106.91 27.2691 106.055 27.2691 105C27.2691 103.945 28.1243 103.09 29.1791 103.09C30.234 103.09 31.0891 103.945 31.0891 105Z" fill="#F23F21" stroke="white" stroke-width="0.3"/>
</svg>
