<svg width="177" height="132" viewBox="0 0 177 132" fill="none" xmlns="http://www.w3.org/2000/svg">
<path d="M87.9244 16.4794C88.1409 16.3189 88.2944 16.0882 88.3585 15.8271C88.4225 15.5659 88.3932 15.2907 88.2755 15.0488C88.1578 14.8069 87.9591 14.6135 87.7137 14.5019C87.4682 14.3903 87.1914 14.3675 86.9309 14.4375L64.8258 19.5938C64.6332 19.6377 64.4551 19.73 64.3084 19.8619L47.7502 35.1863C47.565 35.3572 47.4409 35.5838 47.3968 35.8315C47.3526 36.0792 47.3908 36.3345 47.5056 36.5586C47.6204 36.7827 47.8055 36.9633 48.0327 37.073C48.2599 37.1827 48.5168 37.2154 48.7644 37.1663L66.0677 33.9281C66.2583 33.8902 66.4362 33.8051 66.5851 33.6806L87.9244 16.4794Z" stroke="#F7F7F7" stroke-width="2"/>
<path d="M100.783 17.3343C100.671 17.1266 100.519 16.9429 100.336 16.7936C100.153 16.6444 99.9425 16.5325 99.7161 16.4644C99.4897 16.3963 99.2521 16.3733 99.0168 16.3967C98.7814 16.4201 98.5531 16.4895 98.3447 16.6008L81.4537 25.6259C81.2453 25.7373 81.0609 25.8885 80.9111 26.0708C80.7614 26.2532 80.6491 26.4631 80.5807 26.6887C80.5124 26.9143 80.4893 27.1511 80.5128 27.3856C80.5363 27.6201 80.6059 27.8477 80.7177 28.0554L80.7763 28.1645C80.888 28.3721 81.0397 28.5559 81.2227 28.7051C81.4057 28.8544 81.6164 28.9662 81.8428 29.0343C82.0692 29.1025 82.3068 29.1255 82.5422 29.102C82.7775 29.0786 83.0058 29.0093 83.2142 28.8979L100.105 19.8728C100.314 19.7614 100.498 19.6103 100.648 19.4279C100.798 19.2456 100.91 19.0356 100.978 18.81C101.047 18.5844 101.07 18.3476 101.046 18.1131C101.023 17.8786 100.953 17.6511 100.841 17.4434L100.783 17.3343Z" stroke="#F7F7F7" stroke-width="2"/>
<path d="M129.982 42.4049C130.161 42.6524 130.127 42.8656 129.878 43.0443C124.11 47.1006 118.501 51.3974 113.051 55.9349C104.068 63.4149 89.5385 72.8199 69.4617 84.1499C59.4648 89.7806 46.3631 96.5662 34.6276 95.9887C33.9648 95.9553 33.3203 95.7603 32.7508 95.421C32.1812 95.0816 31.7038 94.6082 31.3606 94.0422C31.0174 93.4762 30.8187 92.835 30.782 92.1747C30.7454 91.5144 30.8719 90.8552 31.1503 90.2549C33.2753 85.7037 36.2351 81.7643 40.0296 78.4368C40.554 77.9556 41.1749 77.7356 41.8924 77.7768L43.0101 77.8181C43.6724 77.8456 44.2451 77.6324 44.728 77.1787L52.9864 69.1143C53.152 68.9356 53.1796 68.7362 53.0692 68.5162L52.7794 68.0006C52.722 67.8886 52.6392 67.7916 52.5372 67.7171C52.4352 67.6426 52.3168 67.5924 52.191 67.5706C52.0652 67.5487 51.9354 67.5556 51.8113 67.5908C51.6873 67.626 51.5724 67.6886 51.4755 67.7737C47.8327 71.0049 43.6241 73.0468 38.8499 73.8993C38.2972 73.9937 37.7838 74.2603 37.3803 74.6624C20.5945 91.4718 20.8429 111.499 51.2064 104.032C70.9727 99.1649 96.6171 81.9431 114.728 68.9081C122.22 63.5043 128.057 57.9356 135.839 51.0262C142.193 45.3543 163.201 21.1199 140.248 19.9237C132.424 19.5112 124.807 20.9137 117.398 24.1312C117.121 24.2529 116.82 24.3088 116.518 24.2945C116.217 24.2802 115.922 24.196 115.659 24.0487L107.732 19.6349C106.297 18.8374 105.345 19.2293 104.875 20.8106C104.075 23.6018 101.86 25.5749 98.2315 26.7299C92.243 28.6687 86.5235 31.1781 81.0731 34.2581C72.9389 38.8574 67.868 46.0968 58.5748 48.6543C53.5797 50.0293 48.5571 50.8406 43.5069 51.0881C42.5377 51.1393 41.6233 51.5515 40.9448 52.2429C40.2662 52.9344 39.8731 53.8546 39.8434 54.8212L39.5536 64.9687C39.4846 67.2924 40.5747 68.1381 42.8238 67.5056C52.1378 64.8656 57.1466 61.5037 64.3701 57.2343C69.3582 54.2643 74.1808 53.8724 79.7485 53.2537C84.3434 52.7381 93.0157 46.2206 97.6727 41.8481C104.565 35.3512 112.637 28.0706 122.261 26.1731C128.285 24.9974 133.811 22.2956 140.124 23.5537C140.518 23.6335 140.889 23.8004 141.21 24.0422C141.531 24.2839 141.794 24.5943 141.978 24.9505C142.163 25.3067 142.265 25.6997 142.277 26.1004C142.289 26.5012 142.211 26.8995 142.048 27.2662C139.868 32.2024 136.688 36.3343 132.507 39.6618C132.093 40.0056 131.672 40.0056 131.244 39.6618C130.058 38.6856 128.326 38.6512 126.049 39.5587C117.232 43.1268 103.385 46.9837 96.348 53.2124C90.9873 57.9562 83.4948 65.6699 76.4782 67.4231C70.1448 68.9906 59.2371 67.5056 53.5452 73.4868C50.8683 76.3056 48.5778 78.4093 46.6736 79.7981C44.8108 81.1593 44.5003 82.8093 45.7422 84.7481L48.7641 89.5124C50.0059 91.4649 51.6755 91.9256 53.7729 90.8943C78.7481 78.5468 98.9559 66.1443 114.396 53.6868C121.337 48.0906 126.318 44.2818 129.34 42.2606C129.602 42.0956 129.816 42.1368 129.982 42.3843V42.4049Z" stroke="#F7F7F7" stroke-width="2"/>
<path d="M107.027 42.4257C112.781 38.0738 118.121 34.3819 123.979 34.9182C127.87 35.2757 128.304 34.2238 125.282 31.7626C120.729 28.0707 108.207 36.7744 104.254 39.7238C104.104 39.8363 103.979 39.9783 103.887 40.1409C103.795 40.3035 103.738 40.4833 103.718 40.669C103.699 40.8547 103.718 41.0424 103.774 41.2204C103.831 41.3984 103.924 41.563 104.047 41.7038L104.399 42.1163C104.716 42.4957 105.167 42.7395 105.656 42.7972C106.146 42.8548 106.637 42.7217 107.027 42.4257Z" stroke="#F7F7F7" stroke-width="2"/>
<path d="M61.159 41.1589C61.0871 40.8218 60.8837 40.527 60.5937 40.3394C60.3037 40.1517 59.9507 40.0865 59.6125 40.1582L43.9019 43.4858C43.5636 43.5575 43.2678 43.7601 43.0795 44.0491C42.8912 44.3381 42.8257 44.6898 42.8976 45.0269L43.0353 45.6725C43.1072 46.0095 43.3105 46.3043 43.6006 46.492C43.8906 46.6796 44.2436 46.7448 44.5818 46.6732L60.2924 43.3455C60.6306 43.2739 60.9264 43.0712 61.1148 42.7822C61.3031 42.4932 61.3685 42.1415 61.2966 41.8044L61.159 41.1589Z" stroke="#F7F7F7" stroke-width="2"/>
<path d="M62.9422 103.909L65.0741 105.456C66.8541 106.748 68.7997 107.078 70.9108 106.446C77.5893 104.438 82.7568 101.606 86.4134 97.9481C94.4441 89.925 101.212 88.3575 110.216 84.3563C122.731 78.815 131.665 69.7813 137.019 57.255C137.516 56.0725 137.088 55.0481 135.736 54.1819C135.198 53.8381 134.694 53.8725 134.225 54.285C112.934 73.3425 89.2766 88.8456 63.2527 100.794C61.3899 101.647 61.2864 102.685 62.9422 103.909Z" stroke="#F7F7F7" stroke-width="2"/>
<path d="M133.776 73.7178C133.904 73.7427 134.04 73.7159 134.178 73.6391C134.316 73.5623 134.452 73.437 134.578 73.2703C134.705 73.1036 134.82 72.8988 134.915 72.6676C135.011 72.4363 135.087 72.1832 135.138 71.9226C135.189 71.6621 135.214 71.3992 135.212 71.1489C135.21 70.8987 135.18 70.6661 135.126 70.4643C135.071 70.2625 134.992 70.0955 134.893 69.9729C134.794 69.8503 134.678 69.7744 134.55 69.7496C134.422 69.7248 134.285 69.7515 134.147 69.8283C134.009 69.9051 133.873 70.0304 133.747 70.1971C133.62 70.3638 133.506 70.5686 133.41 70.7999C133.314 71.0311 133.238 71.2842 133.187 71.5448C133.136 71.8053 133.111 72.0682 133.113 72.3185C133.115 72.5687 133.145 72.8013 133.199 73.0031C133.254 73.2049 133.333 73.3719 133.432 73.4945C133.531 73.6172 133.647 73.693 133.776 73.7178Z" stroke="#F7F7F7" stroke-width="2"/>
<path d="M114.188 91.6162C104.75 95.5969 92.2489 100.196 85.6671 108.364C85.4775 108.603 85.359 108.889 85.3247 109.192C85.2905 109.495 85.3421 109.801 85.4735 110.075C85.6049 110.35 85.811 110.583 86.0684 110.747C86.3258 110.911 86.6241 111 86.9296 111.004C106.758 111.189 126.607 98.9794 132.713 79.5919C132.758 79.437 132.759 79.2724 132.713 79.1175C132.668 78.9626 132.579 78.8238 132.457 78.7175C132.336 78.6113 132.186 78.542 132.026 78.5178C131.865 78.4937 131.702 78.5157 131.554 78.5812C124.392 81.8812 119.301 89.4506 114.188 91.6162Z" stroke="#F7F7F7" stroke-width="2"/>
<path d="M79.9356 108.281C79.9356 107.718 79.711 107.177 79.3112 106.779C78.9114 106.381 78.3691 106.157 77.8037 106.157C77.2383 106.157 76.6961 106.381 76.2963 106.779C75.8965 107.177 75.6719 107.718 75.6719 108.281C75.6719 108.845 75.8965 109.385 76.2963 109.783C76.6961 110.182 77.2383 110.406 77.8037 110.406C78.3691 110.406 78.9114 110.182 79.3112 109.783C79.711 109.385 79.9356 108.845 79.9356 108.281Z" stroke="#F7F7F7" stroke-width="2"/>
<path d="M87.8351 16.3589L87.835 16.3588L87.8303 16.3626L66.491 33.5638L66.491 33.5638L66.4889 33.5655C66.3595 33.6737 66.2048 33.7477 66.0391 33.7809C66.0389 33.7809 66.0386 33.781 66.0384 33.781L48.7368 37.0188L48.7352 37.0191C48.5195 37.0619 48.2957 37.0334 48.0979 36.9379C47.9 36.8424 47.739 36.6852 47.6391 36.4902C47.5393 36.2953 47.506 36.0733 47.5444 35.8578C47.5828 35.6424 47.6908 35.4453 47.852 35.2965L47.8521 35.2963L64.4086 19.9734C64.4089 19.9732 64.4092 19.973 64.4094 19.9728C64.537 19.8583 64.6918 19.7782 64.8592 19.74L64.8599 19.7398L86.965 14.5836L86.965 14.5837L86.9698 14.5824C87.1967 14.5214 87.4379 14.5413 87.6516 14.6385C87.8653 14.7356 88.0383 14.904 88.1406 15.1144C88.243 15.3249 88.2685 15.5642 88.2128 15.7913C88.157 16.0184 88.0235 16.2192 87.8351 16.3589Z" fill="#F23F21" stroke="white" stroke-width="0.3"/>
<path d="M81.5252 25.7582L98.4163 16.733C99.22 16.3036 100.22 16.6049 100.651 17.4051L100.71 17.5141C101.14 18.3143 100.838 19.3113 100.035 19.7407L83.1436 28.7658C82.34 29.1952 81.3397 28.8939 80.9091 28.0938L80.8504 27.9847C80.4198 27.1845 80.7216 26.1875 81.5252 25.7582Z" fill="#F23F21" stroke="white" stroke-width="0.3"/>
<path d="M129.257 42.1359L129.26 42.1336L129.26 42.1336C129.41 42.0394 129.568 41.9901 129.726 42.0205C129.884 42.0511 130.01 42.1564 130.106 42.3009L130.132 42.3388V42.3584C130.217 42.4893 130.262 42.6299 130.238 42.7744C130.213 42.9342 130.109 43.0632 129.966 43.1661L129.965 43.167C124.2 47.2209 118.594 51.5153 113.147 56.0502C104.153 63.5392 89.614 72.9495 69.5355 84.2806L69.5353 84.2806C64.5357 87.0966 58.7534 90.2051 52.7509 92.5372C46.7495 94.8689 40.5177 96.4287 34.6202 96.1385L34.62 96.1385C33.9328 96.1038 33.2646 95.9017 32.674 95.5498C32.0834 95.1979 31.5883 94.707 31.2323 94.12C30.8764 93.533 30.6703 92.8679 30.6323 92.183C30.5943 91.4981 30.7254 90.8144 31.0143 90.1918L31.0144 90.1915C33.148 85.6218 36.12 81.666 39.9296 78.3251C40.4835 77.8173 41.1432 77.5839 41.8995 77.627C41.9 77.627 41.9005 77.627 41.901 77.6271L43.0156 77.6682L43.0163 77.6682C43.6379 77.694 44.1709 77.4958 44.6243 77.0703C44.6246 77.07 44.625 77.0697 44.6253 77.0694L52.8787 69.0098C52.9435 68.9391 52.974 68.8727 52.9827 68.8102C52.9914 68.7474 52.98 68.6741 52.9366 68.5864L52.6486 68.0741L52.6458 68.069L52.6459 68.069C52.5992 67.9779 52.5318 67.8989 52.4487 67.8382C52.3655 67.7774 52.2687 67.7363 52.1653 67.7183C52.0619 67.7003 51.9549 67.706 51.8523 67.7351C51.7499 67.7642 51.6549 67.8158 51.5747 67.8862C51.5746 67.8862 51.5745 67.8863 51.5744 67.8864L51.4755 67.7737C47.8327 71.0049 43.6241 73.0468 38.8499 73.8993L129.257 42.1359ZM129.257 42.1359C126.229 44.1613 121.243 47.9739 114.302 53.57L114.396 53.6868M129.257 42.1359L114.396 53.6868M114.396 53.6868L114.302 53.5701C98.8729 66.0185 78.6754 78.4154 53.7064 90.7598M114.396 53.6868L53.7064 90.7598M53.7064 90.7598C52.6792 91.2649 51.7761 91.3952 50.9876 91.1777C50.1992 90.9602 49.4984 90.3875 48.8906 89.4319L45.8689 84.6677L45.8685 84.6672C45.2604 83.7179 45.0452 82.8596 45.1911 82.0842C45.337 81.3089 45.8498 80.5859 46.762 79.9193C48.6767 78.5229 50.9743 76.4118 53.654 73.5901C56.4628 70.6386 60.5681 69.5198 64.7912 68.9484C66.4543 68.7234 68.1289 68.584 69.7457 68.4493C70.1806 68.4131 70.6113 68.3772 71.0365 68.3401C73.0383 68.1655 74.9183 67.9637 76.5143 67.5687L76.5146 67.5686C80.0558 66.6838 83.7041 64.2996 87.1279 61.5563C89.4857 59.667 91.7484 57.5976 93.8018 55.7197C94.7299 54.8708 95.6153 54.0611 96.4474 53.3248L96.348 53.2124L96.4474 53.3248C99.9453 50.2287 105.145 47.7151 110.587 45.527C113.306 44.4337 116.081 43.4232 118.729 42.4625L119.023 42.356C121.563 41.4348 123.979 40.5581 126.105 39.698C128.363 38.7979 130.026 38.8537 131.149 39.7777L131.15 39.7787C131.383 39.9655 131.627 40.0696 131.881 40.0696C132.134 40.0696 132.375 39.9655 132.601 39.7783C136.801 36.4357 139.996 32.2846 142.186 27.3268C142.358 26.9397 142.44 26.519 142.427 26.0959C142.414 25.6726 142.307 25.2576 142.112 24.8815C141.916 24.5053 141.639 24.1776 141.3 23.9224L141.21 24.0422L141.3 23.9224C140.962 23.6671 140.57 23.4909 140.153 23.4067L140.153 23.4066C136.967 22.7716 133.984 23.1371 131.051 23.8045C129.789 24.0916 128.533 24.4353 127.275 24.7796C127.072 24.8352 126.869 24.8908 126.666 24.9462C125.203 25.3451 123.733 25.7331 122.233 26.0258L122.232 26.0259C112.559 27.933 104.457 35.2467 97.57 41.7387C95.247 43.9198 91.921 46.6372 88.6035 48.8728C86.9448 49.9906 85.2905 50.9864 83.7666 51.7343C82.2404 52.4833 80.8552 52.9785 79.7319 53.1046C79.431 53.138 79.1322 53.1708 78.8354 53.2034C73.6451 53.7727 69.0427 54.2776 64.2934 57.1054C63.4836 57.5841 62.7018 58.0511 61.9389 58.5069C55.8934 62.1189 51.0334 65.0227 42.783 67.3612C41.673 67.6733 40.8989 67.6054 40.4114 67.2272C39.9241 66.8492 39.6695 66.1196 39.7035 64.9731L39.7035 64.973L39.9933 54.8258C40.0219 53.8969 40.3997 53.0126 41.0518 52.348C41.7039 51.6835 42.5827 51.2873 43.5143 51.2379C48.5757 50.9898 53.6092 50.1768 58.6146 48.7989C63.2904 47.5122 66.9004 45.048 70.3512 42.3399C71.1319 41.7273 71.9038 41.1026 72.6779 40.4763C75.3308 38.3298 78.0087 36.1631 81.147 34.3886C86.5884 31.3137 92.2985 28.8084 98.2774 26.8727C101.937 25.7079 104.201 23.7062 105.019 20.8526C105.249 20.0798 105.584 19.6399 105.998 19.4694C106.412 19.2991 106.957 19.3763 107.659 19.766L53.7064 90.7598ZM140.24 20.0735L140.24 20.0735C132.44 19.6622 124.847 21.0602 117.458 24.2686C117.16 24.3996 116.836 24.4597 116.511 24.4443C116.186 24.4289 115.87 24.3383 115.586 24.1797L140.24 20.0735ZM140.24 20.0735C145.959 20.3716 148.876 22.1014 150 24.553M140.24 20.0735L150 24.553M150 24.553C151.13 27.0186 150.483 30.2831 148.898 33.734M150 24.553L148.898 33.734M148.898 33.734C145.733 40.6246 138.909 48.0848 135.74 50.914L148.898 33.734ZM107.659 19.7661L115.586 24.1796L107.659 19.7661Z" fill="#F23F21" stroke="white" stroke-width="0.3"/>
<path d="M123.992 34.7687L123.992 34.7687C121.026 34.4972 118.198 35.2971 115.397 36.7047C112.597 38.1115 109.813 40.1302 106.937 42.3059L106.936 42.3061C106.577 42.5785 106.125 42.7012 105.674 42.6481C105.222 42.5949 104.807 42.37 104.514 42.0199L104.513 42.0188L104.161 41.6063L104.161 41.6063L104.16 41.605C104.05 41.4797 103.968 41.3333 103.917 41.1749C103.867 41.0166 103.85 40.8496 103.867 40.6845C103.885 40.5193 103.936 40.3594 104.018 40.2147C104.1 40.0701 104.211 39.9438 104.344 39.8437C106.318 38.3707 110.428 35.4639 114.61 33.3869C116.701 32.348 118.802 31.5209 120.659 31.1817C122.519 30.8417 124.1 30.9971 125.188 31.8787C125.94 32.4913 126.468 33.0091 126.78 33.4331C127.1 33.8672 127.16 34.1568 127.084 34.34C127.008 34.5237 126.76 34.688 126.225 34.7738C125.703 34.8577 124.961 34.8577 123.992 34.7687Z" fill="#F23F21" stroke="white" stroke-width="0.3"/>
<path d="M43.9318 43.6324L59.6422 40.3048C60.266 40.1726 60.8783 40.5695 61.0107 41.19L61.1484 41.8356C61.2808 42.456 60.8833 43.0668 60.2595 43.1989L44.5491 46.5265C43.9253 46.6587 43.3129 46.2618 43.1806 45.6413L43.0429 44.9958C42.9105 44.3753 43.3079 43.7645 43.9318 43.6324Z" fill="#F23F21" stroke="white" stroke-width="0.3"/>
<path d="M63.3151 100.931L63.3153 100.931C89.3527 88.9757 113.023 73.4644 134.325 54.397C134.54 54.2077 134.753 54.1139 134.965 54.0995C135.177 54.085 135.406 54.1491 135.655 54.3083C136.317 54.732 136.735 55.1837 136.933 55.6577C137.128 56.1267 137.116 56.6359 136.881 57.1961C131.542 69.6872 122.636 78.6931 110.155 84.2191L110.155 84.2192C108.329 85.0304 106.594 85.7421 104.92 86.4287C98.3531 89.1214 92.7268 91.4286 86.3074 97.842L86.3073 97.8421C82.6733 101.477 77.5303 104.299 70.8677 106.302C68.8013 106.921 66.9043 106.599 65.1622 105.334L65.1622 105.334L63.0314 103.788C63.0313 103.788 63.0312 103.788 63.0311 103.788C62.6247 103.487 62.335 103.205 62.1539 102.941C61.9735 102.678 61.9059 102.442 61.9273 102.227C61.9702 101.797 62.3875 101.355 63.3151 100.931Z" fill="#F23F21" stroke="white" stroke-width="0.3"/>
<path d="M133.805 73.5707C133.623 73.5354 133.447 73.341 133.345 72.9639C133.245 72.5972 133.232 72.1038 133.335 71.5734C133.439 71.0431 133.637 70.5907 133.867 70.2878C134.103 69.9762 134.339 69.8616 134.521 69.8969C134.704 69.9322 134.879 70.1266 134.982 70.5037C135.081 70.8704 135.095 71.3638 134.991 71.8942C134.888 72.4245 134.689 72.8769 134.46 73.1798C134.223 73.4914 133.987 73.606 133.805 73.5707Z" fill="#F23F21" stroke="white" stroke-width="0.3"/>
<path d="M114.247 91.7544L114.247 91.7543C115.544 91.2048 116.834 90.3155 118.146 89.2462C119.289 88.3153 120.455 87.2426 121.663 86.132C121.842 85.9669 122.023 85.801 122.204 85.6346C125.012 83.0581 128.059 80.3569 131.616 78.7179C131.737 78.6643 131.872 78.6463 132.003 78.6661C132.135 78.686 132.258 78.7431 132.359 78.8306C132.459 78.918 132.532 79.0322 132.569 79.1596C132.606 79.2865 132.606 79.4213 132.569 79.5482C126.486 98.8622 106.704 111.039 86.9315 110.854C86.6539 110.85 86.3828 110.77 86.149 110.621C85.9153 110.471 85.7281 110.26 85.6088 110.011C85.4895 109.761 85.4427 109.483 85.4738 109.209C85.5048 108.934 85.6123 108.674 85.7842 108.457C89.056 104.398 93.8054 101.218 98.9259 98.553C103.045 96.4094 107.394 94.6045 111.397 92.9433C112.37 92.5395 113.323 92.1441 114.247 91.7544Z" fill="#F23F21" stroke="white" stroke-width="0.3"/>
<path d="M79.7836 108.281C79.7836 109.371 78.8968 110.256 77.8018 110.256C76.7067 110.256 75.8199 109.371 75.8199 108.281C75.8199 107.191 76.7067 106.307 77.8018 106.307C78.8968 106.307 79.7836 107.191 79.7836 108.281Z" fill="#F23F21" stroke="white" stroke-width="0.3"/>
</svg>
