<svg width="128" height="170" viewBox="0 0 128 186" fill="none" xmlns="http://www.w3.org/2000/svg">
<g clip-path="url(#clip0_272_113)">
<path d="M131.686 6.24195C127.468 -10.6865 158.445 -31.2378 165.958 -39.0763C171.012 -44.302 169.935 -47.3759 162.729 -48.298L147.24 -50.4059C140.649 -51.2841 135.179 -49.1983 130.829 -44.1483C111.452 -21.7526 90.4926 4.8587 118.833 30.8113C141.111 51.2309 173.67 28.1107 186.456 42.9313C197.331 55.4465 185.797 71.0576 171.495 72.8361C164.772 73.6924 158.049 70.9917 150.931 70.0696C123.843 66.5126 104.268 100.501 78.1676 72.1774C68.413 61.6383 68.6107 44.7098 53.3857 34.1707C52.5766 33.605 51.6279 33.2718 50.6427 33.207C49.6574 33.1422 48.6732 33.3485 47.7969 33.8033C46.9207 34.2582 46.1858 34.9442 45.6722 35.787C45.1586 36.6298 44.8858 37.5971 44.8835 38.5839C44.6198 55.71 47.7835 103.136 72.038 104.256C102.093 105.573 149.415 66.4467 146.713 131.328C146.625 133.173 147.438 134.468 149.152 135.215C157.105 138.772 162.224 137.498 164.508 131.394C170.177 116.2 176.987 101.533 184.94 87.3933C195.42 68.8839 214.006 75.1415 230.681 72.7043C233.449 72.3091 235.053 70.7283 235.493 67.9617L237.206 56.5004C237.383 55.3251 237.187 54.1198 236.645 53.0477C236.103 51.9756 235.24 51.0885 234.174 50.5063C218.883 42.2067 207.283 25.2124 193.574 19.2183C175.911 11.5115 139.002 35.5539 131.686 6.24195Z" stroke="#F5C7DB" stroke-width="2"/>
<path d="M68.4125 22.1165C79.5512 34.5 79.3535 64.7341 105.19 60.6502C107.262 60.3249 109.194 59.3948 110.742 57.9776C112.29 56.5604 113.383 54.7198 113.884 52.6888C114.385 50.6578 114.271 48.5276 113.557 46.5679C112.842 44.6082 111.559 42.9071 109.869 41.6798C82.7148 21.7872 78.3648 -6.47088 96.4898 -38.2859C98.0277 -41.0085 97.3686 -41.755 94.5125 -40.5254L89.3716 -38.3518C87.3065 -37.4735 85.7027 -36.0463 84.5603 -34.0702C78.5406 -23.7507 76.5633 -12.6626 78.6285 -0.806101C78.7867 0.0884194 78.7348 1.00745 78.4768 1.87848C78.2188 2.74951 77.7617 3.54871 77.1418 4.213C76.5218 4.8773 75.7559 5.38851 74.9044 5.70633C74.0529 6.02414 73.1392 6.13986 72.2353 6.04434C67.1822 5.47347 62.9421 3.36564 59.5148 -0.279145C59.0532 -0.762844 58.4734 -1.11977 57.8335 -1.31419C57.1936 -1.50861 56.5161 -1.5337 55.8687 -1.38697C55.2214 -1.24023 54.6269 -0.926804 54.1448 -0.478065C53.6627 -0.029325 53.3098 0.538994 53.1216 1.16999L52.3966 3.27782C51.9142 4.81203 51.9284 6.45926 52.4373 7.98493C52.9461 9.5106 53.9237 10.8369 55.2307 11.775C62.3489 16.8689 66.7429 20.3161 68.4125 22.1165Z" stroke="#F5C7DB" stroke-width="2"/>
<path d="M121.008 136.532C126.369 137.498 129.708 137.696 131.027 137.125C133.139 136.183 135.007 134.768 136.484 132.99C137.962 131.213 139.009 129.12 139.545 126.876C140.081 124.633 140.09 122.298 139.573 120.054C139.056 117.809 138.026 115.717 136.563 113.939C126.479 101.621 101.433 117.693 87.197 118.681C79.2 119.208 78.7386 121.36 85.8129 125.137C95.6992 130.362 107.431 134.161 121.008 136.532Z" stroke="#F5C7DB" stroke-width="2"/>
<path d="M0 -117H290V186H0V-117ZM131.686 6.24195C127.468 -10.6865 158.445 -31.2378 165.959 -39.0763C171.012 -44.302 169.936 -47.3759 162.73 -48.298L147.241 -50.4059C140.65 -51.2841 135.18 -49.1983 130.83 -44.1483C111.452 -21.7526 90.4932 4.8587 118.834 30.8113C141.111 51.2309 173.67 28.1107 186.457 42.9313C197.332 55.4465 185.798 71.0576 171.495 72.8361C164.773 73.6924 158.05 70.9917 150.932 70.0696C123.843 66.5126 104.268 100.501 78.1682 72.1774C68.4136 61.6383 68.6114 44.7098 53.3864 34.1707C52.5773 33.605 51.6286 33.2718 50.6433 33.207C49.658 33.1422 48.6738 33.3485 47.7976 33.8033C46.9213 34.2582 46.1865 34.9442 45.6728 35.787C45.1592 36.6298 44.8864 37.5971 44.8841 38.5839C44.6205 55.71 47.7841 103.136 72.0386 104.256C102.093 105.573 149.416 66.4467 146.714 131.328C146.626 133.173 147.439 134.468 149.152 135.215C157.105 138.772 162.224 137.498 164.509 131.394C170.177 116.2 176.988 101.533 184.941 87.3933C195.42 68.8839 214.007 75.1415 230.682 72.7043C233.45 72.3091 235.054 70.7283 235.493 67.9617L237.207 56.5004C237.384 55.3251 237.188 54.1198 236.646 53.0477C236.103 51.9756 235.241 51.0885 234.175 50.5063C218.884 42.2067 207.284 25.2124 193.575 19.2183C175.911 11.5115 139.002 35.5539 131.686 6.24195ZM68.4136 22.1165C79.5523 34.5 79.3545 64.7341 105.191 60.6502C107.263 60.3249 109.196 59.3948 110.743 57.9776C112.291 56.5604 113.384 54.7198 113.885 52.6888C114.386 50.6578 114.272 48.5276 113.558 46.5679C112.843 44.6082 111.56 42.9071 109.87 41.6798C82.7159 21.7872 78.3659 -6.47087 96.4909 -38.2859C98.0288 -41.0085 97.3697 -41.755 94.5136 -40.5254L89.3727 -38.3517C87.3076 -37.4735 85.7038 -36.0463 84.5614 -34.0702C78.5417 -23.7506 76.5644 -12.6626 78.6295 -0.806091C78.7878 0.0884323 78.7358 1.00746 78.4778 1.87849C78.2198 2.74952 77.7628 3.54871 77.1429 4.21301C76.5229 4.87731 75.757 5.38852 74.9055 5.70634C74.054 6.02415 73.1403 6.13987 72.2364 6.04435C67.1833 5.47348 62.9432 3.36565 59.5159 -0.279137C59.0543 -0.762833 58.4745 -1.11976 57.8346 -1.31418C57.1947 -1.5086 56.5172 -1.5337 55.8698 -1.38696C55.2224 -1.24022 54.628 -0.926796 54.1458 -0.478058C53.6637 -0.0293121 53.3109 0.539001 53.1227 1.17001L52.3977 3.27782C51.9153 4.81204 51.9295 6.45927 52.4384 7.98494C52.9472 9.51061 53.9248 10.8369 55.2318 11.775C62.35 16.8689 66.7439 20.3161 68.4136 22.1165ZM185.468 -15.2974L193.245 -29.1959C193.682 -29.9936 193.847 -30.9091 193.716 -31.8017C193.585 -32.6943 193.165 -33.5144 192.52 -34.1361L190.873 -35.6511C188.852 -37.6272 187.27 -37.3417 186.127 -34.7948C184.062 -30.2717 181.711 -25.9024 179.075 -21.6867C173.143 -12.2015 161.939 -8.84218 155.677 -0.871964C155.166 -0.213646 154.843 0.572342 154.743 1.39988C154.643 2.22742 154.771 3.06458 155.111 3.81966C155.451 4.57474 155.992 5.21861 156.673 5.68072C157.354 6.14284 158.15 6.40537 158.973 6.43956C169.716 6.96652 180.327 -0.871956 191.268 -1.00369C203.33 -1.13543 213.611 9.86478 220.927 15.9907C229.056 22.8411 231.319 21.2602 227.716 11.248C223.014 -1.70631 211.019 -7.32718 191.73 -5.61456C190.548 -5.51127 189.36 -5.73199 188.294 -6.25298C187.228 -6.77396 186.325 -7.57551 185.681 -8.57137C185.037 -9.56722 184.677 -10.7197 184.639 -11.9048C184.602 -13.09 184.888 -14.2629 185.468 -15.2974ZM178.065 55.4432C177.922 53.1768 176.677 51.073 174.602 49.5945C172.528 48.116 169.794 47.3839 167.003 47.5593C164.212 47.7348 161.592 48.8035 159.719 50.5304C157.846 52.2572 156.874 54.5006 157.017 56.7672C157.159 59.0336 158.405 61.1375 160.48 62.616C162.554 64.0945 165.288 64.8265 168.079 64.6511C170.87 64.4756 173.49 63.4069 175.363 61.6801C177.236 59.9532 178.208 57.7098 178.065 55.4432ZM195.025 121.25C202.209 106.891 206.032 102.346 221.455 96.4174C221.973 96.2105 222.44 95.898 222.826 95.5006C223.213 95.1032 223.509 94.6299 223.695 94.112C224.091 92.9702 224.157 91.8065 223.893 90.6209C223.41 88.557 222.136 87.7446 220.07 88.1837C201.923 91.9163 191.334 103.136 188.302 121.843C188.083 123.248 188.654 124.148 190.016 124.544C190.851 124.763 191.708 124.632 192.586 124.148C193.465 123.709 194.278 122.743 195.025 121.25ZM121.009 136.532C126.37 137.498 129.709 137.696 131.027 137.125C133.14 136.183 135.007 134.768 136.485 132.99C137.962 131.213 139.01 129.12 139.546 126.876C140.082 124.633 140.091 122.298 139.574 120.054C139.057 117.809 138.026 115.717 136.564 113.939C126.48 101.621 101.434 117.693 87.1977 118.681C79.2008 119.208 78.7394 121.36 85.8136 125.137C95.7 130.362 107.432 134.161 121.009 136.532Z" fill="#FEFEFE"/>
<path d="M131.686 6.24195C139.002 35.5539 175.911 11.5115 193.574 19.2183C207.283 25.2124 218.883 42.2067 234.174 50.5063C235.24 51.0885 236.103 51.9756 236.645 53.0477C237.187 54.1198 237.383 55.3251 237.206 56.5004L235.493 67.9617C235.053 70.7283 233.449 72.3091 230.681 72.7043C214.006 75.1415 195.42 68.8839 184.94 87.3933C176.987 101.533 170.177 116.2 164.508 131.394C162.224 137.498 157.105 138.772 149.152 135.215C147.438 134.468 146.625 133.173 146.713 131.328C149.415 66.4467 102.093 105.573 72.038 104.256C47.7835 103.136 44.6198 55.71 44.8835 38.5839C44.8858 37.5971 45.1586 36.6298 45.6722 35.787C46.1858 34.9442 46.9207 34.2582 47.7969 33.8033C48.6732 33.3485 49.6574 33.1423 50.6427 33.207C51.6279 33.2718 52.5766 33.605 53.3857 34.1707C68.6107 44.7098 68.413 61.6383 78.1676 72.1774C104.268 100.501 123.843 66.5126 150.931 70.0696C158.049 70.9917 164.772 73.6924 171.495 72.8361C185.797 71.0576 197.331 55.4465 186.456 42.9313C173.67 28.1107 141.111 51.2309 118.833 30.8113C90.4926 4.8587 111.452 -21.7526 130.829 -44.1483C135.179 -49.1983 140.649 -51.2841 147.24 -50.4059L162.729 -48.298C169.935 -47.3759 171.012 -44.302 165.958 -39.0763C158.445 -31.2378 127.468 -10.6865 131.686 6.24195Z" fill="#EB90B8"/>
<path d="M68.4145 22.1165C66.7448 20.3161 62.3509 16.8689 55.2327 11.775C53.9256 10.8369 52.9481 9.5106 52.4392 7.98493C51.9304 6.45926 51.9161 4.81203 52.3986 3.27782L53.1236 1.16999C53.3118 0.538994 53.6646 -0.0293236 54.1467 -0.478065C54.6288 -0.926804 55.2233 -1.24023 55.8707 -1.38697C56.518 -1.53371 57.1956 -1.50861 57.8355 -1.31419C58.4753 -1.11977 59.0551 -0.762844 59.5168 -0.279144C62.944 3.36564 67.1842 5.47347 72.2372 6.04434C73.1411 6.13986 74.0549 6.02414 74.9064 5.70633C75.7578 5.38851 76.5238 4.8773 77.1437 4.21301C77.7637 3.54871 78.2207 2.74951 78.4787 1.87848C78.7367 1.00745 78.7886 0.0884209 78.6304 -0.806103C76.5653 -12.6626 78.5425 -23.7507 84.5622 -34.0702C85.7047 -36.0463 87.3084 -37.4735 89.3736 -38.3518L94.5145 -40.5254C97.3706 -41.755 98.0297 -41.0085 96.4918 -38.2859C78.3668 -6.47088 82.7168 21.7872 109.871 41.6798C111.561 42.9071 112.844 44.6082 113.559 46.5679C114.273 48.5276 114.387 50.6578 113.886 52.6888C113.385 54.7198 112.292 56.5604 110.744 57.9776C109.196 59.3948 107.264 60.3249 105.192 60.6502C79.3554 64.7341 79.5531 34.5 68.4145 22.1165Z" fill="#EB90B8"/>
<path d="M121.008 136.532C107.431 134.161 95.6992 130.362 85.8129 125.137C78.7386 121.36 79.2 119.208 87.197 118.681C101.433 117.693 126.479 101.621 136.563 113.939C138.026 115.717 139.056 117.809 139.573 120.054C140.09 122.298 140.081 124.633 139.545 126.876C139.009 129.12 137.962 131.213 136.484 132.99C135.007 134.768 133.139 136.183 131.027 137.125C129.708 137.696 126.369 137.498 121.008 136.532Z" fill="#EB90B8"/>
</g>
<defs>
<clipPath id="clip0_272_113">
<rect width="270" height="255" fill="white" transform="translate(0 -117)"/>
</clipPath>
</defs>
</svg>
